# xmcd
#
# Track frame offsets:
#	150
#	12743
#	22936
#	32361
#	43256
#	56181
#	67178
#	79831
#	95428
#	104014
#	115920
#	130684
#	138635
#	148024
#	158412
#	171522
#	185111
#	198102
#	215000
#	226615
#	242840
#	255441
#	271358
#	284663
#	297557
#	309547
#	318165
#
# Disc length: 4374 seconds
# Revision: 0
# Processed by: cddbd v1.5.2PL0 Copyright (c) Steve Scherf et al.
# Submitted via: dBpowerAMP V12.0
#
DISCID=9b11141b
DTITLE=Jerry Engler - A Whole Lotta Years, A Whole Lotta Music
DYEAR=1900
DGENRE=
TTITLE0=Sweet Momma
TTITLE1=J.D. Express
TTITLE2=Hey Crazy Fool
TTITLE3=Gone Out Of Sight
TTITLE4=Lovin' You
TTITLE5=Time Enough To Love You
TTITLE6=Boy From Illinois
TTITLE7=Don't Cry Tonight
TTITLE8=Renegade Man
TTITLE9=Lonesome Whistle Blues
TTITLE10=I Want A Love
TTITLE11=Wanderin' Gypsy
TTITLE12=Lonesome And Blue
TTITLE13=Hell Bent Desire
TTITLE14=Straight From Hell
TTITLE15=Fill Me With Love
TTITLE16=Nobody Loves Me Tonight
TTITLE17=Time Stands Still
TTITLE18=Leavin' Me And You
TTITLE19=You Walk With Him I'll Walk Alone
TTITLE20=Bayou Baby
TTITLE21=This Old Blue Heart
TTITLE22=Come Back And Love me
TTITLE23=Would You Love Me Then
TTITLE24=Sputnik (1992)
TTITLE25=What A'You Gonna Do (w Buddy Holly)
TTITLE26=I Sent You Roses (w Buddy Holly)
EXTD=
EXTT0=
EXTT1=
EXTT2=
EXTT3=
EXTT4=
EXTT5=
EXTT6=
EXTT7=
EXTT8=
EXTT9=
EXTT10=
EXTT11=
EXTT12=
EXTT13=
EXTT14=
EXTT15=
EXTT16=
EXTT17=
EXTT18=
EXTT19=
EXTT20=
EXTT21=
EXTT22=
EXTT23=
EXTT24=
EXTT25=
EXTT26=
PLAYORDER=
